<mxfile host="Electron" modified="2025-03-27T07:15:12.022Z" agent="Mozilla/5.0 (Macintosh; Intel Mac OS X 10_15_7) AppleWebKit/537.36 (KHTML, like Gecko) draw.io/22.1.2 Chrome/114.0.5735.289 Electron/25.9.4 Safari/537.36" etag="8hd5o6XlTRxrjkoiAKvN" version="22.1.2" type="device">
  <diagram name="Page-1" id="vJzLkzdInqs4tIbNOSpT">
    <mxGraphModel dx="1061" dy="851" grid="1" gridSize="10" guides="1" tooltips="1" connect="1" arrows="1" fold="1" page="1" pageScale="1" pageWidth="850" pageHeight="1100" math="0" shadow="0">
      <root>
        <mxCell id="0" />
        <mxCell id="1" parent="0" />
        <mxCell id="BSKHAsqhzb50ucjgJwVL-88" style="rounded=0;orthogonalLoop=1;jettySize=auto;html=1;entryX=0;entryY=0.5;entryDx=0;entryDy=0;" edge="1" parent="1">
          <mxGeometry relative="1" as="geometry">
            <mxPoint x="310" y="395" as="sourcePoint" />
            <mxPoint x="352.5" y="395" as="targetPoint" />
          </mxGeometry>
        </mxCell>
        <mxCell id="BSKHAsqhzb50ucjgJwVL-2" value="&lt;font style=&quot;font-size: 10px;&quot;&gt;code&lt;/font&gt;" style="shape=note;whiteSpace=wrap;html=1;backgroundOutline=1;darkOpacity=0.05;size=16;" vertex="1" parent="1">
          <mxGeometry x="265.47" y="370" width="40" height="50" as="geometry" />
        </mxCell>
        <mxCell id="BSKHAsqhzb50ucjgJwVL-5" value="Framework" style="swimlane;whiteSpace=wrap;html=1;dashed=1;" vertex="1" parent="1">
          <mxGeometry x="320" y="300" width="170" height="660" as="geometry">
            <mxRectangle x="320" y="300" width="100" height="30" as="alternateBounds" />
          </mxGeometry>
        </mxCell>
        <mxCell id="BSKHAsqhzb50ucjgJwVL-53" style="rounded=0;orthogonalLoop=1;jettySize=auto;html=1;dashed=1;dashPattern=1 1;strokeColor=#666666;endArrow=blockThin;endFill=1;" edge="1" parent="BSKHAsqhzb50ucjgJwVL-5" source="BSKHAsqhzb50ucjgJwVL-1" target="BSKHAsqhzb50ucjgJwVL-21">
          <mxGeometry relative="1" as="geometry" />
        </mxCell>
        <mxCell id="BSKHAsqhzb50ucjgJwVL-1" value="&lt;font style=&quot;font-size: 9px;&quot;&gt;Identify Web Framework&lt;/font&gt;" style="rounded=1;whiteSpace=wrap;html=1;" vertex="1" parent="BSKHAsqhzb50ucjgJwVL-5">
          <mxGeometry x="37.5" y="80" width="95" height="30" as="geometry" />
        </mxCell>
        <mxCell id="BSKHAsqhzb50ucjgJwVL-21" value="&lt;font style=&quot;font-size: 9px;&quot;&gt;Split Endpoint&lt;br&gt;with identifer&lt;br&gt;&lt;/font&gt;" style="rounded=1;whiteSpace=wrap;html=1;" vertex="1" parent="BSKHAsqhzb50ucjgJwVL-5">
          <mxGeometry x="37.5" y="140" width="95" height="30" as="geometry" />
        </mxCell>
        <mxCell id="BSKHAsqhzb50ucjgJwVL-110" value="&lt;font style=&quot;font-size: 9px;&quot;&gt;Identify relationship&lt;/font&gt;" style="rounded=1;whiteSpace=wrap;html=1;" vertex="1" parent="BSKHAsqhzb50ucjgJwVL-5">
          <mxGeometry x="37.5" y="440" width="95" height="30" as="geometry" />
        </mxCell>
        <mxCell id="BSKHAsqhzb50ucjgJwVL-125" style="edgeStyle=orthogonalEdgeStyle;rounded=0;orthogonalLoop=1;jettySize=auto;html=1;" edge="1" parent="BSKHAsqhzb50ucjgJwVL-5" source="BSKHAsqhzb50ucjgJwVL-121">
          <mxGeometry relative="1" as="geometry">
            <mxPoint x="-20" y="508.9999999999999" as="targetPoint" />
          </mxGeometry>
        </mxCell>
        <mxCell id="BSKHAsqhzb50ucjgJwVL-121" value="&lt;font style=&quot;font-size: 9px;&quot;&gt;Save result&lt;/font&gt;" style="rounded=1;whiteSpace=wrap;html=1;" vertex="1" parent="BSKHAsqhzb50ucjgJwVL-5">
          <mxGeometry x="37.5" y="494" width="95" height="30" as="geometry" />
        </mxCell>
        <mxCell id="BSKHAsqhzb50ucjgJwVL-126" value="&lt;font style=&quot;font-size: 9px;&quot;&gt;Visualise&lt;/font&gt;" style="rounded=1;whiteSpace=wrap;html=1;" vertex="1" parent="BSKHAsqhzb50ucjgJwVL-5">
          <mxGeometry x="37.5" y="550" width="95" height="30" as="geometry" />
        </mxCell>
        <mxCell id="BSKHAsqhzb50ucjgJwVL-127" value="&lt;font size=&quot;1&quot;&gt;Documentize&lt;/font&gt;" style="rounded=1;whiteSpace=wrap;html=1;" vertex="1" parent="BSKHAsqhzb50ucjgJwVL-5">
          <mxGeometry x="37.5" y="610" width="95" height="30" as="geometry" />
        </mxCell>
        <mxCell id="BSKHAsqhzb50ucjgJwVL-10" value="LLM" style="ellipse;shape=cloud;whiteSpace=wrap;html=1;" vertex="1" parent="1">
          <mxGeometry x="518.5" y="270" width="120" height="80" as="geometry" />
        </mxCell>
        <mxCell id="BSKHAsqhzb50ucjgJwVL-13" value="" style="endArrow=classic;html=1;rounded=0;exitX=1;exitY=0.5;exitDx=0;exitDy=0;entryX=-0.001;entryY=0.229;entryDx=0;entryDy=0;entryPerimeter=0;" edge="1" parent="1" source="BSKHAsqhzb50ucjgJwVL-1" target="BSKHAsqhzb50ucjgJwVL-15">
          <mxGeometry width="50" height="50" relative="1" as="geometry">
            <mxPoint x="480" y="470" as="sourcePoint" />
            <mxPoint x="580" y="395" as="targetPoint" />
          </mxGeometry>
        </mxCell>
        <mxCell id="BSKHAsqhzb50ucjgJwVL-20" style="edgeStyle=orthogonalEdgeStyle;rounded=0;orthogonalLoop=1;jettySize=auto;html=1;entryX=0.5;entryY=0;entryDx=0;entryDy=0;" edge="1" parent="1" source="BSKHAsqhzb50ucjgJwVL-18" target="BSKHAsqhzb50ucjgJwVL-19">
          <mxGeometry relative="1" as="geometry" />
        </mxCell>
        <mxCell id="BSKHAsqhzb50ucjgJwVL-22" style="edgeStyle=orthogonalEdgeStyle;rounded=0;orthogonalLoop=1;jettySize=auto;html=1;entryX=0.002;entryY=0.799;entryDx=0;entryDy=0;entryPerimeter=0;startArrow=classic;startFill=1;endArrow=none;endFill=0;" edge="1" parent="1" source="BSKHAsqhzb50ucjgJwVL-21" target="BSKHAsqhzb50ucjgJwVL-15">
          <mxGeometry relative="1" as="geometry">
            <Array as="points">
              <mxPoint x="519" y="455" />
            </Array>
          </mxGeometry>
        </mxCell>
        <mxCell id="BSKHAsqhzb50ucjgJwVL-15" value="" style="rounded=0;whiteSpace=wrap;html=1;" vertex="1" parent="1">
          <mxGeometry x="518.5" y="370" width="121.5" height="110" as="geometry" />
        </mxCell>
        <mxCell id="BSKHAsqhzb50ucjgJwVL-24" style="edgeStyle=orthogonalEdgeStyle;rounded=0;orthogonalLoop=1;jettySize=auto;html=1;entryX=0.5;entryY=0;entryDx=0;entryDy=0;" edge="1" parent="1" source="BSKHAsqhzb50ucjgJwVL-18" target="BSKHAsqhzb50ucjgJwVL-19">
          <mxGeometry relative="1" as="geometry" />
        </mxCell>
        <mxCell id="BSKHAsqhzb50ucjgJwVL-18" value="&lt;font size=&quot;1&quot;&gt;Identify Framework&lt;/font&gt;" style="rounded=1;whiteSpace=wrap;html=1;" vertex="1" parent="1">
          <mxGeometry x="531.75" y="377.25" width="95" height="35" as="geometry" />
        </mxCell>
        <mxCell id="BSKHAsqhzb50ucjgJwVL-19" value="&lt;font size=&quot;1&quot;&gt;Get endpoint identifier&lt;/font&gt;" style="rounded=1;whiteSpace=wrap;html=1;" vertex="1" parent="1">
          <mxGeometry x="531.75" y="437.75" width="95" height="35" as="geometry" />
        </mxCell>
        <mxCell id="BSKHAsqhzb50ucjgJwVL-115" style="edgeStyle=orthogonalEdgeStyle;rounded=0;orthogonalLoop=1;jettySize=auto;html=1;entryX=-0.004;entryY=0.331;entryDx=0;entryDy=0;entryPerimeter=0;endArrow=classicThin;endFill=1;" edge="1" parent="1" source="BSKHAsqhzb50ucjgJwVL-28" target="BSKHAsqhzb50ucjgJwVL-110">
          <mxGeometry relative="1" as="geometry">
            <mxPoint x="350" y="760" as="targetPoint" />
            <Array as="points">
              <mxPoint x="270" y="750" />
              <mxPoint x="357" y="750" />
            </Array>
          </mxGeometry>
        </mxCell>
        <mxCell id="BSKHAsqhzb50ucjgJwVL-28" value="&lt;font style=&quot;font-size: 9px;&quot;&gt;&amp;nbsp; &amp;nbsp;Endpoints&lt;/font&gt;" style="strokeWidth=1;html=1;shape=mxgraph.flowchart.multi-document;whiteSpace=wrap;align=left;" vertex="1" parent="1">
          <mxGeometry x="231.27000000000004" y="441" width="67.47" height="46" as="geometry" />
        </mxCell>
        <mxCell id="BSKHAsqhzb50ucjgJwVL-65" style="rounded=0;orthogonalLoop=1;jettySize=auto;html=1;dashed=1;dashPattern=1 1;strokeColor=#666666;endArrow=blockThin;endFill=1;" edge="1" parent="1" target="BSKHAsqhzb50ucjgJwVL-67">
          <mxGeometry relative="1" as="geometry">
            <mxPoint x="405" y="472.75" as="sourcePoint" />
          </mxGeometry>
        </mxCell>
        <mxCell id="BSKHAsqhzb50ucjgJwVL-66" style="rounded=0;orthogonalLoop=1;jettySize=auto;html=1;entryX=0.5;entryY=0;entryDx=0;entryDy=0;dashed=1;dashPattern=1 1;endArrow=blockThin;endFill=1;strokeColor=#666666;" edge="1" parent="1" source="BSKHAsqhzb50ucjgJwVL-67" target="BSKHAsqhzb50ucjgJwVL-68">
          <mxGeometry relative="1" as="geometry" />
        </mxCell>
        <mxCell id="BSKHAsqhzb50ucjgJwVL-67" value="&lt;font style=&quot;font-size: 9px;&quot;&gt;For each Endpoint&lt;br&gt;&lt;/font&gt;" style="rounded=1;whiteSpace=wrap;html=1;" vertex="1" parent="1">
          <mxGeometry x="357.5" y="506.75" width="95" height="30" as="geometry" />
        </mxCell>
        <mxCell id="BSKHAsqhzb50ucjgJwVL-109" style="edgeStyle=orthogonalEdgeStyle;rounded=0;orthogonalLoop=1;jettySize=auto;html=1;" edge="1" parent="1" source="BSKHAsqhzb50ucjgJwVL-68" target="BSKHAsqhzb50ucjgJwVL-98">
          <mxGeometry relative="1" as="geometry" />
        </mxCell>
        <mxCell id="BSKHAsqhzb50ucjgJwVL-68" value="&lt;font style=&quot;font-size: 9px;&quot;&gt;Save result&lt;br&gt;&lt;/font&gt;" style="rounded=1;whiteSpace=wrap;html=1;" vertex="1" parent="1">
          <mxGeometry x="357.5" y="560.75" width="95" height="30" as="geometry" />
        </mxCell>
        <mxCell id="BSKHAsqhzb50ucjgJwVL-69" style="edgeStyle=orthogonalEdgeStyle;rounded=0;orthogonalLoop=1;jettySize=auto;html=1;" edge="1" parent="1" target="BSKHAsqhzb50ucjgJwVL-67">
          <mxGeometry relative="1" as="geometry">
            <mxPoint x="270" y="485.75" as="sourcePoint" />
            <Array as="points">
              <mxPoint x="270" y="521.75" />
            </Array>
          </mxGeometry>
        </mxCell>
        <mxCell id="BSKHAsqhzb50ucjgJwVL-70" style="edgeStyle=orthogonalEdgeStyle;rounded=0;orthogonalLoop=1;jettySize=auto;html=1;" edge="1" parent="1">
          <mxGeometry relative="1" as="geometry">
            <mxPoint x="518.5000000000001" y="575.75" as="sourcePoint" />
            <mxPoint x="452.5" y="575.75" as="targetPoint" />
            <Array as="points">
              <mxPoint x="490" y="575.75" />
              <mxPoint x="490" y="575.75" />
            </Array>
          </mxGeometry>
        </mxCell>
        <mxCell id="BSKHAsqhzb50ucjgJwVL-71" value="" style="rounded=0;whiteSpace=wrap;html=1;" vertex="1" parent="1">
          <mxGeometry x="518.5" y="490.75" width="121.5" height="112" as="geometry" />
        </mxCell>
        <mxCell id="BSKHAsqhzb50ucjgJwVL-72" style="edgeStyle=orthogonalEdgeStyle;rounded=0;orthogonalLoop=1;jettySize=auto;html=1;" edge="1" parent="1" source="BSKHAsqhzb50ucjgJwVL-73" target="BSKHAsqhzb50ucjgJwVL-74">
          <mxGeometry relative="1" as="geometry" />
        </mxCell>
        <mxCell id="BSKHAsqhzb50ucjgJwVL-73" value="&lt;font size=&quot;1&quot;&gt;Identify Method&lt;/font&gt;" style="rounded=1;whiteSpace=wrap;html=1;" vertex="1" parent="1">
          <mxGeometry x="531.75" y="501.5" width="95" height="35" as="geometry" />
        </mxCell>
        <mxCell id="BSKHAsqhzb50ucjgJwVL-74" value="&lt;font size=&quot;1&quot;&gt;Identify Parameter&lt;/font&gt;" style="rounded=1;whiteSpace=wrap;html=1;" vertex="1" parent="1">
          <mxGeometry x="531.75" y="557" width="95" height="35" as="geometry" />
        </mxCell>
        <mxCell id="BSKHAsqhzb50ucjgJwVL-75" style="edgeStyle=orthogonalEdgeStyle;rounded=0;orthogonalLoop=1;jettySize=auto;html=1;exitX=1;exitY=0.5;exitDx=0;exitDy=0;" edge="1" parent="1">
          <mxGeometry relative="1" as="geometry">
            <mxPoint x="452.5" y="525.75" as="sourcePoint" />
            <mxPoint x="519" y="521.75" as="targetPoint" />
            <Array as="points">
              <mxPoint x="519" y="521.75" />
            </Array>
          </mxGeometry>
        </mxCell>
        <mxCell id="BSKHAsqhzb50ucjgJwVL-76" style="edgeStyle=orthogonalEdgeStyle;rounded=0;orthogonalLoop=1;jettySize=auto;html=1;" edge="1" parent="1" source="BSKHAsqhzb50ucjgJwVL-68">
          <mxGeometry relative="1" as="geometry">
            <mxPoint x="260" y="490" as="targetPoint" />
            <Array as="points">
              <mxPoint x="260" y="572.75" />
            </Array>
          </mxGeometry>
        </mxCell>
        <mxCell id="BSKHAsqhzb50ucjgJwVL-29" style="rounded=0;orthogonalLoop=1;jettySize=auto;html=1;strokeColor=#B3B3B3;exitX=-0.025;exitY=0.49;exitDx=0;exitDy=0;exitPerimeter=0;" edge="1" parent="1" source="BSKHAsqhzb50ucjgJwVL-21">
          <mxGeometry relative="1" as="geometry">
            <mxPoint x="348.5" y="455.00763358778624" as="sourcePoint" />
            <mxPoint x="301" y="455" as="targetPoint" />
          </mxGeometry>
        </mxCell>
        <mxCell id="BSKHAsqhzb50ucjgJwVL-97" style="rounded=0;orthogonalLoop=1;jettySize=auto;html=1;endArrow=blockThin;endFill=1;strokeColor=#666666;dashed=1;dashPattern=1 1;" edge="1" parent="1" source="BSKHAsqhzb50ucjgJwVL-98" target="BSKHAsqhzb50ucjgJwVL-100">
          <mxGeometry relative="1" as="geometry" />
        </mxCell>
        <mxCell id="BSKHAsqhzb50ucjgJwVL-98" value="&lt;font style=&quot;font-size: 9px;&quot;&gt;Identify DB&lt;/font&gt;" style="rounded=1;whiteSpace=wrap;html=1;" vertex="1" parent="1">
          <mxGeometry x="357.5" y="615" width="95" height="30" as="geometry" />
        </mxCell>
        <mxCell id="BSKHAsqhzb50ucjgJwVL-99" style="edgeStyle=orthogonalEdgeStyle;rounded=0;orthogonalLoop=1;jettySize=auto;html=1;" edge="1" parent="1" source="BSKHAsqhzb50ucjgJwVL-100">
          <mxGeometry relative="1" as="geometry">
            <mxPoint x="260" y="640" as="targetPoint" />
            <Array as="points">
              <mxPoint x="260" y="684" />
            </Array>
          </mxGeometry>
        </mxCell>
        <mxCell id="BSKHAsqhzb50ucjgJwVL-111" style="edgeStyle=orthogonalEdgeStyle;rounded=0;orthogonalLoop=1;jettySize=auto;html=1;" edge="1" parent="1" source="BSKHAsqhzb50ucjgJwVL-100" target="BSKHAsqhzb50ucjgJwVL-110">
          <mxGeometry relative="1" as="geometry" />
        </mxCell>
        <mxCell id="BSKHAsqhzb50ucjgJwVL-100" value="&lt;font style=&quot;font-size: 9px;&quot;&gt;Save result&lt;/font&gt;" style="rounded=1;whiteSpace=wrap;html=1;" vertex="1" parent="1">
          <mxGeometry x="357.5" y="669" width="95" height="30" as="geometry" />
        </mxCell>
        <mxCell id="BSKHAsqhzb50ucjgJwVL-101" value="" style="rounded=0;whiteSpace=wrap;html=1;" vertex="1" parent="1">
          <mxGeometry x="518.5" y="610" width="121.5" height="110" as="geometry" />
        </mxCell>
        <mxCell id="BSKHAsqhzb50ucjgJwVL-102" style="edgeStyle=orthogonalEdgeStyle;rounded=0;orthogonalLoop=1;jettySize=auto;html=1;entryX=0.5;entryY=0;entryDx=0;entryDy=0;" edge="1" parent="1" source="BSKHAsqhzb50ucjgJwVL-103" target="BSKHAsqhzb50ucjgJwVL-104">
          <mxGeometry relative="1" as="geometry" />
        </mxCell>
        <mxCell id="BSKHAsqhzb50ucjgJwVL-103" value="&lt;font size=&quot;1&quot;&gt;Identify DB&lt;/font&gt;" style="rounded=1;whiteSpace=wrap;html=1;" vertex="1" parent="1">
          <mxGeometry x="531.75" y="618" width="95" height="35" as="geometry" />
        </mxCell>
        <mxCell id="BSKHAsqhzb50ucjgJwVL-104" value="&lt;font size=&quot;1&quot;&gt;Identify table(key)&lt;/font&gt;" style="rounded=1;whiteSpace=wrap;html=1;" vertex="1" parent="1">
          <mxGeometry x="531.75" y="677.5" width="95" height="35" as="geometry" />
        </mxCell>
        <mxCell id="BSKHAsqhzb50ucjgJwVL-105" style="rounded=0;orthogonalLoop=1;jettySize=auto;html=1;entryX=0.005;entryY=0.178;entryDx=0;entryDy=0;entryPerimeter=0;" edge="1" parent="1" source="BSKHAsqhzb50ucjgJwVL-98" target="BSKHAsqhzb50ucjgJwVL-101">
          <mxGeometry relative="1" as="geometry" />
        </mxCell>
        <mxCell id="BSKHAsqhzb50ucjgJwVL-107" style="rounded=0;orthogonalLoop=1;jettySize=auto;html=1;entryX=0;entryY=0.672;entryDx=0;entryDy=0;entryPerimeter=0;startArrow=classic;startFill=1;endArrow=none;endFill=0;" edge="1" parent="1" source="BSKHAsqhzb50ucjgJwVL-100" target="BSKHAsqhzb50ucjgJwVL-101">
          <mxGeometry relative="1" as="geometry">
            <mxPoint x="510" y="680" as="targetPoint" />
          </mxGeometry>
        </mxCell>
        <mxCell id="BSKHAsqhzb50ucjgJwVL-113" style="edgeStyle=orthogonalEdgeStyle;rounded=0;orthogonalLoop=1;jettySize=auto;html=1;entryX=-0.004;entryY=0.611;entryDx=0;entryDy=0;entryPerimeter=0;endArrow=classicThin;endFill=1;" edge="1" parent="1" target="BSKHAsqhzb50ucjgJwVL-110">
          <mxGeometry relative="1" as="geometry">
            <mxPoint x="280.38" y="645" as="sourcePoint" />
            <mxPoint x="357.5" y="758.3299999999999" as="targetPoint" />
            <Array as="points">
              <mxPoint x="280" y="758" />
            </Array>
          </mxGeometry>
        </mxCell>
        <mxCell id="BSKHAsqhzb50ucjgJwVL-108" value="&lt;font style=&quot;font-size: 9px;&quot;&gt;&amp;nbsp; &amp;nbsp; DB Info&lt;/font&gt;" style="strokeWidth=1;html=1;shape=mxgraph.flowchart.multi-document;whiteSpace=wrap;align=left;" vertex="1" parent="1">
          <mxGeometry x="231.27000000000004" y="590.75" width="67.47" height="46" as="geometry" />
        </mxCell>
        <mxCell id="BSKHAsqhzb50ucjgJwVL-116" value="" style="rounded=0;whiteSpace=wrap;html=1;" vertex="1" parent="1">
          <mxGeometry x="518.5" y="730" width="121.5" height="110" as="geometry" />
        </mxCell>
        <mxCell id="BSKHAsqhzb50ucjgJwVL-117" style="edgeStyle=orthogonalEdgeStyle;rounded=0;orthogonalLoop=1;jettySize=auto;html=1;entryX=0.5;entryY=0;entryDx=0;entryDy=0;" edge="1" parent="1" source="BSKHAsqhzb50ucjgJwVL-118" target="BSKHAsqhzb50ucjgJwVL-119">
          <mxGeometry relative="1" as="geometry" />
        </mxCell>
        <mxCell id="BSKHAsqhzb50ucjgJwVL-118" value="&lt;font size=&quot;1&quot;&gt;Identify relationship&lt;/font&gt;" style="rounded=1;whiteSpace=wrap;html=1;" vertex="1" parent="1">
          <mxGeometry x="531.75" y="737.75" width="95" height="35" as="geometry" />
        </mxCell>
        <mxCell id="BSKHAsqhzb50ucjgJwVL-119" value="&lt;font size=&quot;1&quot;&gt;make graph&lt;/font&gt;" style="rounded=1;whiteSpace=wrap;html=1;" vertex="1" parent="1">
          <mxGeometry x="531.75" y="797.25" width="95" height="35" as="geometry" />
        </mxCell>
        <mxCell id="BSKHAsqhzb50ucjgJwVL-120" style="rounded=0;orthogonalLoop=1;jettySize=auto;html=1;entryX=-0.004;entryY=0.231;entryDx=0;entryDy=0;entryPerimeter=0;" edge="1" parent="1" source="BSKHAsqhzb50ucjgJwVL-110" target="BSKHAsqhzb50ucjgJwVL-116">
          <mxGeometry relative="1" as="geometry" />
        </mxCell>
        <mxCell id="BSKHAsqhzb50ucjgJwVL-122" style="rounded=0;orthogonalLoop=1;jettySize=auto;html=1;entryX=-0.001;entryY=0.719;entryDx=0;entryDy=0;endArrow=none;endFill=0;startArrow=classic;startFill=1;entryPerimeter=0;" edge="1" parent="1" source="BSKHAsqhzb50ucjgJwVL-121" target="BSKHAsqhzb50ucjgJwVL-116">
          <mxGeometry relative="1" as="geometry" />
        </mxCell>
        <mxCell id="BSKHAsqhzb50ucjgJwVL-128" style="edgeStyle=orthogonalEdgeStyle;rounded=0;orthogonalLoop=1;jettySize=auto;html=1;entryX=0;entryY=0.5;entryDx=0;entryDy=0;" edge="1" parent="1" source="BSKHAsqhzb50ucjgJwVL-123" target="BSKHAsqhzb50ucjgJwVL-126">
          <mxGeometry relative="1" as="geometry">
            <Array as="points">
              <mxPoint x="270" y="865" />
            </Array>
          </mxGeometry>
        </mxCell>
        <mxCell id="BSKHAsqhzb50ucjgJwVL-129" style="edgeStyle=orthogonalEdgeStyle;rounded=0;orthogonalLoop=1;jettySize=auto;html=1;entryX=0;entryY=0.5;entryDx=0;entryDy=0;" edge="1" parent="1" source="BSKHAsqhzb50ucjgJwVL-123" target="BSKHAsqhzb50ucjgJwVL-127">
          <mxGeometry relative="1" as="geometry">
            <Array as="points">
              <mxPoint x="280" y="925" />
            </Array>
          </mxGeometry>
        </mxCell>
        <mxCell id="BSKHAsqhzb50ucjgJwVL-123" value="&lt;font style=&quot;font-size: 9px;&quot;&gt;relationship data&lt;/font&gt;" style="shape=document;whiteSpace=wrap;html=1;boundedLbl=1;" vertex="1" parent="1">
          <mxGeometry x="237.69" y="791" width="60.31" height="39" as="geometry" />
        </mxCell>
      </root>
    </mxGraphModel>
  </diagram>
</mxfile>
